<svg id="Layer_1" data-name="Layer 1" xmlns="http://www.w3.org/2000/svg" viewBox="0 0 26.77 38.51"><defs><style>.cls-1{fill:#fff;}</style></defs><title>Untitled-2</title><path class="cls-1" d="M14.91.57A13.38,13.38,0,0,0,5.37,23.34l.2.2a9.73,9.73,0,0,1,2.15,3.53l0,0A2.92,2.92,0,0,0,7.58,32a2.92,2.92,0,0,0,2.81,3.7h.29a4.33,4.33,0,0,0,8.45,0h.29A2.92,2.92,0,0,0,22.23,32a2.92,2.92,0,0,0-.08-4.9l0,0a9.73,9.73,0,0,1,2.14-3.51l.21-.21A13.38,13.38,0,0,0,14.91.57Zm0,36.22a2,2,0,0,1-1.81-1.1h3.62A2,2,0,0,1,14.91,36.8Zm4.51-3.39H11.74l-1.15,0v0H10.4a.63.63,0,0,1-.54-1H20a.63.63,0,0,1-.54,1Zm1.42-3.25H9a.63.63,0,0,1-.28-.95H21.12a.63.63,0,0,1-.28.95Zm-7.15-3.23V20.14h2.44v6.78Zm9.19-5.25-.06.06a12,12,0,0,0-3.07,5.19H18.42V20.14h.72a3,3,0,1,0-3-3v.72H13.69v-.72a3,3,0,1,0-3,3h.72v6.78H10.07A12,12,0,0,0,7,21.73l-.05-.05a11.1,11.1,0,1,1,15.95,0Zm-4.47-3.82v-.72a.72.72,0,1,1,.72.72Zm-7-.72v.72h-.72a.72.72,0,1,1,.72-.72Z" transform="translate(-1.52 -0.57)"/></svg>