<svg height="1288pt" viewBox="0 -1 1288.0753 1288" width="1288pt" xmlns="http://www.w3.org/2000/svg" xmlns:xlink="http://www.w3.org/1999/xlink"><linearGradient id="a" gradientUnits="userSpaceOnUse" x1="18.2426878538" x2="1001.3393649392" y1="1164.7577414112" y2="181.6610643258"><stop offset="0" stop-color="#ff99b5"/><stop offset="1" stop-color="#ffdc68"/></linearGradient><path d="m1019.371094 1081.863281-44-866.8125c-4.5625-89.757812-81.019532-158.824219-170.777344-154.265625l-650.109375 32.996094c-89.753906 4.558594-158.824219 81.011719-154.273437 170.769531l44.003906 866.8125c4.390625 86.480469 75.734375 154.375 162.328125 154.484375 2.804687 0 5.621093-.074218 8.449219-.21875l650.105468-32.992187c89.761719-4.558594 158.832032-81.019531 154.273438-170.777344zm0 0" fill="url(#a)"/><path d="m1255.726562 159.835938c-25.703124-34.703126-64.214843-57.679688-106.957031-63.816407l-644.078125-94.246093c-88.929687-13.015626-171.570312 48.523437-184.589844 137.453124v.007813l-125.664062 858.765625c-12.152344 88.710938 48.984375 170.808594 137.457031 184.585938l644.082031 94.25c88.707032 12.15625 170.808594-48.984376 184.582032-137.457032l125.671875-858.773437c6.371093-42.710938-4.613281-86.199219-30.503907-120.769531zm0 0" fill="#fff6d9"/><path d="m1091.253906 1215.808594-644.082031-94.25c-88.472656-13.773438-149.613281-95.871094-137.460937-184.582032l125.664062-858.773437c4.148438-28.445313 15.8125-55.269531 33.78125-77.707031-76.050781 5.609375-138.007812 63.277344-149.054688 138.734375l-125.664062 858.769531c-12.152344 88.710938 48.984375 170.808594 137.457031 184.585938l644.082031 94.25c57.179688 7.902343 114.304688-14.835938 150.414063-59.871094-11.71875.914062-23.503906.527344-35.136719-1.15625zm0 0" fill="#fff2c6"/><path d="m770.675781 478.285156c-137.457031-184.582031-383.566406-1.304687-246.136719 183.28125 57.351563 77.015625 145.519532 154.167969 178.289063 181.789063 7.851563 6.621093 18.78125 8.21875 28.203125 4.128906 39.328125-17.074219 145.882812-65.722656 222.898438-123.082031 184.613281-137.464844 1.351562-383.574219-183.253907-246.117188zm0 0" fill="#ffe58e"/></svg>