<?xml version="1.0" encoding="utf-8"?>
<!-- Generator: Adobe Illustrator 21.0.0, SVG Export Plug-In . SVG Version: 6.00 Build 0)  -->
<svg version="1.1" id="_x34_e463a22-6ddb-479b-a6e5-bedc922df74f"
	 xmlns="http://www.w3.org/2000/svg" xmlns:xlink="http://www.w3.org/1999/xlink" x="0px" y="0px" viewBox="0 0 1100 811.4"
	 style="enable-background:new 0 0 1100 811.4;" xml:space="preserve">
<style type="text/css">
	.st0{opacity:0.1;fill:#26B386;enable-background:new    ;}
	.st1{opacity:0.1;enable-background:new    ;}
	.st2{fill:#26B386;}
	.st3{fill:#444053;}
	.st4{fill:#F6F8FB;}
	.st5{opacity:5.000000e-02;enable-background:new    ;}
	.st6{fill:#FFD037;}
	.st7{fill:#A8A8A8;}
	.st8{opacity:0.2;enable-background:new    ;}
</style>
<title>feeling blue</title>
<path class="st0" d="M11.8,389C29.2,456.1,65.9,514.2,124,542.3c120.7,58.5,392.9,28.3,596.1-6.3c105.1-17.9,197.5-67.3,264.6-136.8
	L11.8,389z"/>
<path class="st0" d="M1077.2,73H965.7c-5.3,0-9.6-3.9-9.6-8.7s4.3-8.7,9.6-8.7H985c-5.3,0-9.6-3.9-9.6-8.7s4.3-8.7,9.6-8.7h-13.8
	c-5.3,0-9.6-3.9-9.6-8.7s4.3-8.7,9.6-8.7h58.2c-12.9-5.4-28-9.3-45.4-11.3C825.4-9,768.8,3.2,748.8,15.7
	c-24.9,15.8-52.6,26.8-81.5,32.3c-97.9,18.3-280.9,40.2-446.8-7C137.9,17.5,76.6,57.2,39.9,123.6h1056.7
	c-1.4-19.3-5.5-37.1-13.1-52.7C1081.7,72.3,1079.5,73,1077.2,73z"/>
<path class="st0" d="M2.4,248.9c-4.3,39-2.8,78.5,4.3,117.1l978.7,32.4c26.9-27.9,49.8-59.5,68-93.8L2.4,248.9z M389.5,332.4h-19.3
	c5.3,0,9.6,3.9,9.6,8.7s-4.3,8.7-9.6,8.7H258.7c-5.3,0-9.6-3.9-9.6-8.7s4.3-8.7,9.6-8.7H278c-5.3,0-9.6-3.9-9.6-8.7s4.3-8.7,9.6-8.7
	h-13.8c-5.3,0-9.6-3.9-9.6-8.7s4.3-8.7,9.6-8.7h111.5c5.3,0,9.6,3.9,9.6,8.7s-4.3,8.7-9.6,8.7h13.8c5.3,0,9.6,3.9,9.6,8.7
	S394.8,332.4,389.5,332.4z"/>
<path class="st0" d="M1096.6,124.2L28.1,147.7c-13,30.2-21.6,64.4-25.6,99.8h1075.3c7-20.7,12.2-42,15.5-63.6
	C1096.6,163.1,1097.9,143,1096.6,124.2z M219.5,201.3h-19.3c5.3,0,9.6,3.9,9.6,8.7c0,4.8-4.3,8.7-9.6,8.7H88.7
	c-5.3,0-9.6-3.9-9.6-8.7s4.3-8.7,9.6-8.7H108c-5.3,0-9.6-3.9-9.6-8.7s4.3-8.7,9.6-8.7H94.2c-5.3,0-9.6-3.9-9.6-8.7s4.3-8.7,9.6-8.7
	h111.5c5.3,0,9.6,3.9,9.6,8.7c0,4.8-4.3,8.7-9.6,8.7h13.8c5.3,0,9.6,3.9,9.6,8.7S224.8,201.3,219.5,201.3z"/>
<ellipse class="st0" cx="545.1" cy="740" rx="447" ry="41.1"/>
<path class="st1" d="M854.7,758c-2.9,0.1-19.5,0-19.5,0c-0.2-0.3-0.5-0.5-0.7-0.8C838.8,755.7,847.9,753.6,854.7,758z"/>
<path class="st1" d="M902,758c-2.9,0.1-19.5,0-19.5,0c-0.2-0.3-0.5-0.5-0.7-0.8C886.1,755.7,895.2,753.6,902,758z"/>
<circle class="st2" cx="519" cy="454.8" r="308.5"/>
<path class="st3" d="M680.9,609.8c0,48.7-76.6,4.2-158.6,4.2s-165.1,42.7-165.1-6c0-27.8,26.5-66.4,64.4-94.4l0,0
	c28.6-21.1,63.7-36.3,99-36.3c36.3,0,71.8,16.4,100.2,38.9C656.5,544.5,680.9,582.6,680.9,609.8z"/>
<path class="st4" d="M620.7,516.1c-43.6-6.6-122.5-14.6-199.2-2.6c28.6-21.1,63.7-36.3,99-36.3C556.8,477.2,592.4,493.6,620.7,516.1
	z"/>
<path class="st5" d="M357.1,237c0,0-92.9,59.4-92.2,152.3S357.1,237,357.1,237z"/>
<path class="st2" d="M827.4,69.2c0,0-84.2-5.1-74.3,53.9c0,0-2,10.4,7.5,15.2c0,0,0.2-4.4,8.6-2.9c3,0.5,6.1,0.7,9.2,0.4
	c4.1-0.3,8.1-1.9,11.2-4.6l0,0c0,0,23.7-9.8,32.9-48.5c0,0,6.8-8.4,6.5-10.6l-14.2,6.1c0,0,4.8,10.2,1,18.8c0,0-0.5-18.4-3.2-18
	c-0.5,0.1-7.4,3.6-7.4,3.6s8.3,17.9,2,30.8c0,0,2.4-22-4.7-29.5l-10,5.8c0,0,9.8,18.4,3.1,33.5c0,0,1.7-23.1-5.2-32.1l-9.1,7.1
	c0,0,9.2,18.2,3.6,30.7c0,0-0.7-26.9-5.5-28.9c0,0-7.9,7-9.1,9.9c0,0,6.3,13.2,2.4,20.1c0,0-2.4-17.9-4.3-18c0,0-7.9,11.9-8.7,20
	c0,0,0.3-12.1,6.8-21.1c0,0-7.6,1.3-12.1,6.3c0,0,1.2-8.4,14-9.1c0,0,6.5-9,8.3-9.5c0,0-12.8-1.1-20.5,2.4c0,0,6.8-7.9,22.8-4.3
	l9-7.3c0,0-16.8-2.3-23.9,0.2c0,0,8.2-7,26.3-1.9l9.8-5.8c0,0-14.3-3.1-22.8-2c0,0,9-4.8,25.7,0.4l7-3.1c0,0-10.5-2.1-13.6-2.4
	s-3.2-1.2-3.2-1.2c6.7-1.1,13.5-0.3,19.7,2.3C812.8,75.7,827.6,70.2,827.4,69.2z"/>
<path class="st2" d="M741,43c0,0-38-2.3-33.6,24.4c0,0-0.9,4.7,3.4,6.8c0,0,0.1-2,3.9-1.3c1.4,0.2,2.8,0.3,4.1,0.2
	c1.9-0.1,3.6-0.9,5.1-2.1l0,0c0,0,10.7-4.4,14.8-21.9c0,0,3.1-3.8,3-4.8l-6.4,2.7c0,0,2.2,4.6,0.5,8.5c0,0-0.2-8.3-1.4-8.1
	c-0.2,0-3.3,1.6-3.3,1.6s3.8,8.1,0.9,13.9c0,0,1.1-9.9-2.1-13.3l-4.5,2.6c0,0,4.4,8.3,1.4,15.1c0,0,0.8-10.4-2.4-14.5l-4.1,3.2
	c0,0,4.1,8.2,1.6,13.8c0,0-0.3-12.1-2.5-13.1c0,0-3.6,3.2-4.1,4.5c0,0,2.8,6,1.1,9.1c0,0-1.1-8.1-2-8.1c0,0-3.6,5.3-3.9,9
	c0.2-3.4,1.2-6.7,3.1-9.6c-2.1,0.4-4,1.4-5.5,2.8c0,0,0.5-3.8,6.3-4.1c0,0,3-4.1,3.7-4.3c0,0-5.8-0.5-9.2,1.1c0,0,3.1-3.6,10.3-2
	l4-3.3c0,0-7.6-1-10.8,0.1c0,0,3.7-3.2,11.9-0.8l4.4-2.6c0,0-6.5-1.4-10.3-0.9c0,0,4.1-2.2,11.6,0.2l3.2-1.4c0,0-4.7-0.9-6.1-1.1
	s-1.5-0.5-1.5-0.5c3-0.5,6.1-0.2,8.9,1C734.4,45.9,741.1,43.4,741,43z"/>
<ellipse class="st0" cx="1073.1" cy="725.5" rx="26.9" ry="4.5"/>
<ellipse class="st0" cx="46.8" cy="801.2" rx="26.9" ry="4.5"/>
<ellipse class="st0" cx="203.1" cy="806.9" rx="26.9" ry="4.5"/>
<ellipse class="st2" cx="1014.2" cy="774.2" rx="40.2" ry="6.8"/>
<path class="st2" d="M1030.8,763.1c1.8-1.5,3.2-3.5,3.8-5.8c0.5-2.3-0.5-5-2.7-5.9c-2.5-0.9-5.1,0.8-7.1,2.5s-4.3,3.7-6.9,3.3
	c2.7-2.5,4-6.2,3.2-9.8c-0.1-0.7-0.4-1.4-0.9-2c-1.4-1.5-3.8-0.8-5.5,0.3c-5.2,3.7-6.7,10.7-6.7,17.1c-0.5-2.3-0.1-4.7-0.1-7
	s-0.7-5-2.6-6.2c-1.2-0.7-2.6-1-4-0.9c-2.3-0.1-4.9,0.1-6.5,1.8c-2,2.1-1.5,5.7,0.3,8s4.3,3.8,6.8,5.4c1.9,1.2,3.6,2.7,4.8,4.6
	c0.1,0.3,0.3,0.5,0.4,0.8h14.7C1025,767.7,1028.1,765.6,1030.8,763.1z"/>
<path class="st2" d="M59.3,679.3c0,0,5.5,7.2-2.5,18s-14.7,20-12,26.8c0,0,12.1-20.1,22-20.4S70.2,691.4,59.3,679.3z"/>
<path class="st1" d="M59.3,679.3c0.5,0.7,0.9,1.5,1.1,2.2c9.6,11.3,14.7,21.8,5.5,22.1c-8.6,0.2-19,15.7-21.4,19.5
	c0.1,0.3,0.2,0.6,0.3,0.9c0,0,12.1-20.1,22-20.4S70.2,691.4,59.3,679.3z"/>
<path class="st6" d="M69.6,688.4c0,2.5-0.3,4.6-0.6,4.6c-0.4,0-0.6-2-0.6-4.6s0.4-1.3,0.7-1.3S69.6,685.9,69.6,688.4z"/>
<path class="st6" d="M73,691.4c-2.2,1.2-4.1,1.9-4.3,1.6s1.5-1.5,3.7-2.7s1.3-0.3,1.5,0C74.1,690.7,75.3,690.2,73,691.4z"/>
<path class="st2" d="M30.3,679.3c0,0-5.5,7.2,2.5,18s14.7,20,12,26.8c0,0-12.1-20.1-22-20.4S19.5,691.4,30.3,679.3z"/>
<path class="st1" d="M30.3,679.3c-0.5,0.7-0.9,1.4-1.1,2.2c-9.6,11.3-14.8,21.8-5.5,22.1c8.6,0.2,19,15.7,21.4,19.5
	c-0.1,0.3-0.2,0.6-0.3,0.9c0,0-12.1-20.1-22-20.4S19.5,691.4,30.3,679.3z"/>
<path class="st6" d="M20.1,688.4c0,2.5,0.3,4.6,0.6,4.6s0.6-2,0.6-4.6s-0.3-1.3-0.7-1.3S20.1,685.9,20.1,688.4z"/>
<path class="st6" d="M16.6,691.4c2.2,1.2,4.2,1.9,4.3,1.6s-1.5-1.5-3.7-2.7s-1.3-0.3-1.5,0S14.4,690.2,16.6,691.4z"/>
<path class="st7" d="M21.9,723.1c0,0,15.4-0.5,20-3.8s23.6-7.2,24.8-2c1.1,5.2,23.1,26.3,5.7,26.4s-40.3-2.7-44.9-5.5
	S21.9,723.1,21.9,723.1z"/>
<path class="st8" d="M72.7,742c-17.3,0.1-40.3-2.7-44.9-5.5c-3.5-2.1-4.9-9.8-5.4-13.4h-0.5c0,0,1,12.4,5.6,15.2s27.6,5.7,44.9,5.5
	c5,0,6.7-1.8,6.6-4.5C78.3,741,76.4,742,72.7,742z"/>
<path class="st3" d="M409.3,414.3c5.9-0.3,33.5-2.4,51-12.4c2.8-1.7,6-2.6,9.3-2.7c5.6-0.2,12,2.2,7.9,15.2
	c-6.7,21.3-45.3,45.3-69.3,44c-23.1-1.3-50.5-10.6-68.5-43.3c-1.7-3.1-2.6-6.7-2.5-10.3c0.2-6.6,2.6-14.9,15-5.6
	c16.7,12.5,48.5,14.8,54.9,15.2C407.8,414.4,408.6,414.4,409.3,414.3z"/>
<path class="st3" d="M631.3,414.3c5.9-0.3,33.5-2.4,51-12.4c2.8-1.7,6-2.6,9.3-2.7c5.6-0.2,12,2.2,7.9,15.2
	c-6.7,21.3-45.3,45.3-69.3,44c-23.1-1.3-50.5-10.6-68.5-43.3c-1.7-3.1-2.6-6.7-2.5-10.3c0.2-6.6,2.6-14.9,15-5.6
	c16.7,12.5,48.5,14.8,54.9,15.2C629.8,414.4,630.6,414.4,631.3,414.3z"/>
</svg>
